<?xml version="1.0" encoding="UTF-8"?>
<svg version="1.1" xmlns="http://www.w3.org/2000/svg" width="1014" height="366">
<path d="M0 0 C1.11052231 -0.00807175 2.22104462 -0.01614349 3.36521912 -0.02445984 C5.71603868 -0.03824954 8.06687784 -0.0489944 10.41772461 -0.05688477 C12.77651004 -0.06831096 15.13527159 -0.08861054 17.49389648 -0.1184082 C33.6039434 -0.32135693 48.6722266 0.8854855 64.43359375 4.23828125 C65.9804142 4.55332116 67.52736305 4.86773152 69.07446289 5.18139648 C110.28669219 13.79823825 152.06202272 36.29237064 175.62841797 72.05126953 C186.15696958 88.92187722 192.26644351 106.45121696 192.05859375 126.36328125 C192.05528046 127.08306152 192.05196716 127.8028418 192.04855347 128.54443359 C191.81125767 158.37024557 177.88924957 182.75054452 157.12841797 203.61816406 C148.7788031 211.59973195 139.35122445 218.35791615 129.43359375 224.23828125 C128.53898437 224.79773438 127.644375 225.3571875 126.72265625 225.93359375 C104.56472302 239.47118036 79.80878661 246.66640669 54.43359375 251.23828125 C53.09615112 251.51865234 53.09615112 251.51865234 51.73168945 251.8046875 C40.95981796 253.83352733 30.05080031 253.61041247 19.12719727 253.60888672 C15.66696576 253.61322375 12.20805077 253.64952946 8.74804688 253.6875 C-6.40116976 253.76319949 -20.73010489 252.27019845 -35.56640625 249.23828125 C-36.3830928 249.07341721 -37.19977936 248.90855316 -38.04121399 248.73869324 C-62.50065147 243.74650938 -85.89913209 234.22230953 -106.56640625 220.23828125 C-107.56285156 219.56925781 -108.55929688 218.90023437 -109.5859375 218.2109375 C-116.82020393 213.15005583 -123.19159068 207.31578032 -129.56640625 201.23828125 C-130.37207031 200.49707031 -131.17773438 199.75585938 -132.0078125 198.9921875 C-138.23846615 193.08661143 -142.92258442 186.41586718 -147.56640625 179.23828125 C-148.17512573 178.34036865 -148.17512573 178.34036865 -148.79614258 177.42431641 C-152.28298363 172.13693184 -154.57166119 166.66820252 -156.75390625 160.73828125 C-157.09615234 159.83980469 -157.43839844 158.94132813 -157.79101562 158.015625 C-161.7327075 147.49934415 -163.00757742 138.54240977 -163.00390625 127.30078125 C-163.00497375 126.60953156 -163.00604126 125.91828186 -163.00714111 125.20608521 C-162.98242729 114.1302812 -161.81414227 104.52523878 -157.56640625 94.23828125 C-157.13199219 93.05105469 -156.69757813 91.86382812 -156.25 90.640625 C-150.58358229 76.0629179 -141.39808477 64.30959867 -130.56640625 53.23828125 C-129.81617188 52.43777344 -129.0659375 51.63726562 -128.29296875 50.8125 C-119.57901551 41.70531782 -109.26061683 34.80462217 -98.56640625 28.23828125 C-97.81488281 27.7484375 -97.06335938 27.25859375 -96.2890625 26.75390625 C-68.73580827 9.23286254 -32.40564052 0.22888006 0 0 Z M-102.56640625 51.23828125 C-103.33082031 51.80289063 -104.09523437 52.3675 -104.8828125 52.94921875 C-124.08747442 67.56079138 -140.11513743 86.93916233 -145.00390625 111.11328125 C-148.01034576 135.46544126 -143.19859587 157.32139683 -128.56640625 177.23828125 C-125.71001724 180.71933851 -122.68462685 183.99142119 -119.56640625 187.23828125 C-118.80585938 188.06199219 -118.0453125 188.88570312 -117.26171875 189.734375 C-106.96980396 200.54932153 -94.61974024 208.19896867 -81.56640625 215.23828125 C-80.66277344 215.74875 -79.75914062 216.25921875 -78.828125 216.78515625 C-35.55255584 240.0825683 19.37081836 242.09384327 66.43359375 231.23828125 C67.22475586 231.0592627 68.01591797 230.88024414 68.83105469 230.69580078 C87.69672368 226.3496407 104.87137925 219.23112575 121.43359375 209.23828125 C120.77359375 208.90828125 120.11359375 208.57828125 119.43359375 208.23828125 C116.54667066 209.22197356 113.71658503 210.27052085 110.87109375 211.36328125 C81.0569892 222.33742667 47.51182465 224.65606227 16.43359375 218.23828125 C15.58925781 218.07199219 14.74492187 217.90570313 13.875 217.734375 C-17.79351375 211.38184995 -49.34316196 196.31285748 -68.53515625 169.40234375 C-79.33099705 152.58574558 -85.66245055 132.94838786 -81.84765625 112.953125 C-78.02096605 95.75945214 -69.66890566 81.89185769 -57.56640625 69.23828125 C-56.66341797 68.22314453 -56.66341797 68.22314453 -55.7421875 67.1875 C-46.12235449 56.77470896 -33.07493409 49.97618517 -20.36230469 44.07275391 C-18.79991615 43.34678272 -17.24850192 42.59728418 -15.69921875 41.84375 C-9.12177328 38.84100315 -2.28140925 36.92241654 4.68359375 35.05078125 C5.59955322 34.80054199 6.5155127 34.55030273 7.45922852 34.29248047 C21.06264222 30.78704465 34.59362664 29.90232045 48.56982422 29.97753906 C50.93222698 29.98827504 53.29386975 29.97755786 55.65625 29.96484375 C69.32547149 29.9503722 82.57561277 30.99813569 95.74609375 34.92578125 C101.54129666 36.89961822 101.54129666 36.89961822 107.43359375 36.23828125 C42.45915649 8.30921829 -44.15429595 5.33528209 -102.56640625 51.23828125 Z M-39.56640625 74.23828125 C-40.34371094 74.84414062 -41.12101562 75.45 -41.921875 76.07421875 C-54.66374807 86.57332499 -64.47142254 102.74028453 -66.56640625 119.23828125 C-67.79780015 135.93314085 -62.58966888 150.93442407 -52.25390625 164.05078125 C-30.41607918 189.16060598 3.29237859 202.70414709 36.10986328 205.109375 C60.71743132 206.47445127 82.89454414 203.26216734 106.43359375 196.23828125 C106.43359375 195.90828125 106.43359375 195.57828125 106.43359375 195.23828125 C105.70994629 195.22369873 104.98629883 195.20911621 104.24072266 195.1940918 C70.24463224 194.43161806 39.01450036 189.74746983 14.43359375 164.23828125 C2.91179547 151.6592393 -1.21610369 138.11573688 -0.81640625 121.3984375 C-0.22063963 108.22305862 5.96627283 97.04536814 14.43359375 87.23828125 C14.98273438 86.58214844 15.531875 85.92601562 16.09765625 85.25 C32.11586843 67.64407957 59.26254333 58.52125704 82.42175293 57.11779785 C91.75486701 56.73114736 101.10118164 56.92413998 110.43359375 57.23828125 C98.14974334 44.95443084 67.14447123 46.03600241 50.93359375 45.98828125 C17.93403934 46.08542448 -13.31053127 53.44223723 -39.56640625 74.23828125 Z M24.43359375 100.23828125 C16.43111587 110.50323979 14.4555764 119.35329081 15.43359375 132.23828125 C17.5701878 144.84239071 25.95433151 154.53979573 35.89453125 162.11328125 C60.23123996 178.48392014 90.04278963 181.6100113 118.43725586 176.21508789 C135.02306487 172.63939179 152.50960611 164.52773887 162.43359375 150.23828125 C168.94743573 138.95171857 170.07930037 125.55216682 167.18359375 112.98828125 C166.63319843 111.06189762 166.05246991 109.14376838 165.43359375 107.23828125 C165.2015625 106.51898438 164.96953125 105.7996875 164.73046875 105.05859375 C160.71747505 95.26216796 150.60450141 88.70991176 141.43359375 84.23828125 C140.7478125 83.83222656 140.06203125 83.42617187 139.35546875 83.0078125 C104.49246607 63.19928825 51.44908295 71.27362255 24.43359375 100.23828125 Z " fill="#31107C" transform="translate(253.56640625,55.76171875)"/>
<path d="M0 0 C12.54 0 25.08 0 38 0 C39.58691828 4.76075485 40.86920307 9.42280991 41.97119141 14.30029297 C42.159764 15.12372759 42.3483366 15.94716221 42.54262352 16.79554939 C43.14838496 19.44380245 43.75005953 22.09296435 44.3515625 24.7421875 C44.72653621 26.38425774 45.10177905 28.02626655 45.47729492 29.66821289 C46.8631217 35.7363987 48.24374925 41.80577095 49.625 47.875 C52.71875 61.44625 55.8125 75.0175 59 89 C59.33 59.63 59.66 30.26 60 0 C66.6 0 73.2 0 80 0 C80 34.32 80 68.64 80 104 C67.46 104 54.92 104 42 104 C39.39003793 92.5612859 36.78189136 81.12216208 34.17697144 69.68229866 C32.96743287 64.37078237 31.75708797 59.05945247 30.54492188 53.74853516 C29.37594466 48.62670818 28.20905735 43.50440924 27.04364014 38.38177109 C26.59782889 36.42390735 26.15125475 34.46621718 25.70391846 32.50870132 C25.07925966 29.77464332 24.45727482 27.03999022 23.8359375 24.30517578 C23.55541534 23.08166412 23.55541534 23.08166412 23.26922607 21.83343506 C22 16.22810432 22 16.22810432 22 14 C21.34 14 20.68 14 20 14 C20 43.7 20 73.4 20 104 C13.4 104 6.8 104 0 104 C0 69.68 0 35.36 0 0 Z " fill="#31107C" transform="translate(470,130)"/>
<path d="M0 0 C0.87978516 0.56074219 0.87978516 0.56074219 1.77734375 1.1328125 C6.73593278 4.79416674 9.79451977 9.98817701 11 16 C11.15138225 18.90668312 11.25643657 21.79458636 11.31640625 24.703125 C11.33718735 25.54091492 11.35796844 26.37870483 11.37937927 27.24188232 C11.4446255 29.91117356 11.50364358 32.58056098 11.5625 35.25 C11.60570894 37.06250984 11.64932399 38.87501005 11.69335938 40.6875 C11.80028129 45.12490209 11.90161866 49.56240068 12 54 C14.97 54.33 17.94 54.66 21 55 C21 60.28 21 65.56 21 71 C3.0851927 71.37322515 3.0851927 71.37322515 -2.4375 67.125 C-4.00798469 64.98914082 -4.47208897 63.55156997 -5 61 C-5.99 60.505 -5.99 60.505 -7 60 C-7.226875 60.7425 -7.45375 61.485 -7.6875 62.25 C-9.58151716 66.2184169 -12.25999955 68.10761006 -16.125 70.08984375 C-24.71380814 72.80885502 -36.86344832 72.33658475 -44.94921875 68.3984375 C-49.65929668 65.18661293 -52.90142733 61.19714534 -55.4375 56.125 C-56.91430943 47.92050318 -56.64604546 40.18588365 -52 33 C-45.6556563 27.17331622 -38.63003885 24.72893771 -30.0703125 24.8046875 C-28.13671875 24.81435547 -28.13671875 24.81435547 -26.1640625 24.82421875 C-24.81770558 24.84092537 -23.47135141 24.85785521 -22.125 24.875 C-20.75521483 24.88504336 -19.38542258 24.89416683 -18.015625 24.90234375 C-14.67690244 24.92585588 -11.33854239 24.9587207 -8 25 C-8.83115931 19.04854469 -8.83115931 19.04854469 -11.72265625 13.9609375 C-14.73697335 12.68903011 -17.1695642 12.60233224 -20.4375 12.625 C-22.10619141 12.61339844 -22.10619141 12.61339844 -23.80859375 12.6015625 C-27.41451016 13.05175035 -29.18522109 13.71148335 -32 16 C-32.99 17.98 -33.98 19.96 -35 22 C-40.94 20.35 -46.88 18.7 -53 17 C-51.44217573 9.21087866 -47.38777054 4.4414967 -41 0 C-30.39640275 -6.92654337 -10.63237549 -6.79228998 0 0 Z M-36 44 C-36.82340122 47.86998573 -36.31030588 49.47133072 -34.3125 52.875 C-29.11618202 56.20848701 -23.9994793 55.80849406 -18 55 C-13.07888026 52.75527871 -10.52592541 49.76039789 -8 45 C-7.86418543 42.37218311 -7.86418543 42.37218311 -8 40 C-11.72890255 39.8835138 -15.45733514 39.81265424 -19.1875 39.75 C-20.24259766 39.71648437 -21.29769531 39.68296875 -22.38476562 39.6484375 C-30.08298127 39.44175516 -30.08298127 39.44175516 -36 44 Z " fill="#31107C" transform="translate(752,163)"/>
<path d="M0 0 C1.32499512 0.01244751 1.32499512 0.01244751 2.67675781 0.02514648 C12.48590655 0.27970603 19.21391425 2.7791684 26.375 9.59375 C36.16688566 19.91020096 36.125 28.74100375 36.125 43.4375 C18.635 43.4375 1.145 43.4375 -16.875 43.4375 C-12.70038945 51.87693967 -12.70038945 51.87693967 -5.625 56.6875 C-0.43590495 58.10270774 4.28772816 58.07347872 9.375 56.3125 C11.84992019 54.62505442 12.91136511 53.51934495 14.625 51.1875 C15.45 50.28 16.275 49.3725 17.125 48.4375 C21.72978042 48.66322453 25.04394051 50.23250249 29 52.5 C29.96679688 53.04785156 30.93359375 53.59570312 31.9296875 54.16015625 C33.01636719 54.79244141 33.01636719 54.79244141 34.125 55.4375 C31.18173713 63.83837089 24.9799682 69.53420712 17.203125 73.5625 C7.50487177 77.64597504 -7.22416926 77.10709648 -16.8125 73.25 C-19.56640625 71.84375 -19.56640625 71.84375 -21.875 70.4375 C-22.48214844 70.0765625 -23.08929687 69.715625 -23.71484375 69.34375 C-30.3111463 64.64409424 -34.86641575 55.28646276 -36.484375 47.5078125 C-38.12891575 34.58172218 -36.9673918 22.21710019 -28.89453125 11.62890625 C-21.06698699 3.13518801 -11.28499483 -0.13628702 0 0 Z M-14.2578125 23.00390625 C-16.14298807 25.50041009 -16.14298807 25.50041009 -16.875 28.4375 C-5.985 28.4375 4.905 28.4375 16.125 28.4375 C15.63175659 23.51704309 15.63175659 23.51704309 12.875 21.25 C4.56968344 15.77604136 -7.12546366 14.92460715 -14.2578125 23.00390625 Z " fill="#31107C" transform="translate(887.875,158.5625)"/>
<path d="M0 0 C1.32499512 0.01244751 1.32499512 0.01244751 2.67675781 0.02514648 C12.48590655 0.27970603 19.21391425 2.7791684 26.375 9.59375 C36.16688566 19.91020096 36.125 28.74100375 36.125 43.4375 C18.635 43.4375 1.145 43.4375 -16.875 43.4375 C-12.70038945 51.87693967 -12.70038945 51.87693967 -5.625 56.6875 C-0.43590495 58.10270774 4.28772816 58.07347872 9.375 56.3125 C11.84992019 54.62505442 12.91136511 53.51934495 14.625 51.1875 C15.45 50.28 16.275 49.3725 17.125 48.4375 C21.72978042 48.66322453 25.04394051 50.23250249 29 52.5 C29.96679688 53.04785156 30.93359375 53.59570312 31.9296875 54.16015625 C33.01636719 54.79244141 33.01636719 54.79244141 34.125 55.4375 C31.18173713 63.83837089 24.9799682 69.53420712 17.203125 73.5625 C7.50487177 77.64597504 -7.22416926 77.10709648 -16.8125 73.25 C-19.56640625 71.84375 -19.56640625 71.84375 -21.875 70.4375 C-22.48214844 70.0765625 -23.08929687 69.715625 -23.71484375 69.34375 C-30.3111463 64.64409424 -34.86641575 55.28646276 -36.484375 47.5078125 C-38.12891575 34.58172218 -36.9673918 22.21710019 -28.89453125 11.62890625 C-21.06698699 3.13518801 -11.28499483 -0.13628702 0 0 Z M-14.2578125 23.00390625 C-16.14298807 25.50041009 -16.14298807 25.50041009 -16.875 28.4375 C-5.985 28.4375 4.905 28.4375 16.125 28.4375 C15.63175659 23.51704309 15.63175659 23.51704309 12.875 21.25 C4.56968344 15.77604136 -7.12546366 14.92460715 -14.2578125 23.00390625 Z " fill="#31107C" transform="translate(598.875,158.5625)"/>
<path d="M0 0 C6.93 0 13.86 0 21 0 C23.09185911 7.10035956 25.17914273 14.20202561 27.25842285 21.30607986 C28.22412072 24.60480126 29.19180387 27.90291281 30.1640625 31.19970703 C31.28199316 34.99077773 32.39122084 38.78436717 33.5 42.578125 C33.84998047 43.76053772 34.19996094 44.94295044 34.56054688 46.16119385 C34.88087891 47.26203308 35.20121094 48.36287231 35.53125 49.49707031 C35.81548828 50.46525696 36.09972656 51.4334436 36.39257812 52.43096924 C37 55 37 55 37 59 C37.66 59 38.32 59 39 59 C39.21696533 58.09950928 39.43393066 57.19901855 39.6574707 56.27124023 C42.30741544 45.40795026 45.29236754 34.65161087 48.3737793 23.90356445 C49.20089443 21.01573402 50.02152382 18.12610857 50.84179688 15.23632812 C51.36680423 13.39832798 51.89218043 11.56043314 52.41796875 9.72265625 C52.6627446 8.85931168 52.90752045 7.9959671 53.15971375 7.10646057 C54.8852151 1.1147849 54.8852151 1.1147849 56 0 C57.56172745 -0.08685603 59.12729344 -0.10702219 60.69140625 -0.09765625 C61.63564453 -0.09443359 62.57988281 -0.09121094 63.55273438 -0.08789062 C64.54595703 -0.07951172 65.53917969 -0.07113281 66.5625 -0.0625 C67.55958984 -0.05798828 68.55667969 -0.05347656 69.58398438 -0.04882812 C72.05604849 -0.03700007 74.52799518 -0.02051849 77 0 C72.16508615 15.98399211 67.15458722 31.91177685 62.09207153 47.82492065 C61.40406343 49.98842338 60.71711758 52.15226418 60.03121948 54.31643677 C59.05651359 57.39035573 58.07768359 60.46293036 57.09765625 63.53515625 C56.80005402 64.47568848 56.50245178 65.4162207 56.1958313 66.38525391 C55.92117035 67.24304443 55.6465094 68.10083496 55.36352539 68.98461914 C55.12340225 69.73892715 54.88327911 70.49323517 54.63587952 71.270401 C54 73 54 73 53 74 C50.78144736 74.08783542 48.56011504 74.10694609 46.33984375 74.09765625 C45.34314415 74.09553383 45.34314415 74.09553383 44.3263092 74.09336853 C42.19666101 74.08775518 40.06711661 74.07520054 37.9375 74.0625 C36.49674631 74.05748671 35.05599097 74.05292351 33.61523438 74.04882812 C30.07678898 74.03778145 26.53840461 74.02050792 23 74 C17.64524458 58.2171073 12.47347946 42.37704978 7.39801025 26.50231934 C6.75720515 24.49931983 6.11490934 22.49679664 5.47113037 20.49475098 C4.55835897 17.65414293 3.65141421 14.81174017 2.74609375 11.96875 C2.46838638 11.10735413 2.19067902 10.24595825 1.90455627 9.35845947 C1.65302292 8.56405457 1.40148956 7.76964966 1.14233398 6.95117188 C0.92077133 6.25761597 0.69920868 5.56406006 0.47093201 4.8494873 C0 3 0 3 0 0 Z " fill="#31107C" transform="translate(771,160)"/>
<path d="M0 0 C6.27 0 12.54 0 19 0 C19 2.64 19 5.28 19 8 C19.66 8 20.32 8 21 8 C21.226875 7.236875 21.45375 6.47375 21.6875 5.6875 C23.36172901 2.25931678 24.52896906 1.57109821 28 0 C30.9523438 -0.34972866 33.84507579 -0.2837546 36.8125 -0.1875 C39.514375 -0.125625 42.21625 -0.06375 45 0 C45 5.61 45 11.22 45 17 C42.834375 17.103125 40.66875 17.20625 38.4375 17.3125 C29.39971189 17.94432188 29.39971189 17.94432188 22.125 22.9375 C20.22763689 26.41599904 19.871817 29.66187828 19.79467773 33.58496094 C19.77473251 34.48559265 19.75478729 35.38622437 19.73423767 36.31414795 C19.70916893 37.75966034 19.70916893 37.75966034 19.68359375 39.234375 C19.66281265 40.22753723 19.64203156 41.22069946 19.62062073 42.24395752 C19.55530251 45.41256882 19.49632261 48.58126211 19.4375 51.75 C19.39429793 53.89974802 19.35068309 56.04948778 19.30664062 58.19921875 C19.19963923 63.46606208 19.09832178 68.73298778 19 74 C12.73 74 6.46 74 0 74 C0 49.58 0 25.16 0 0 Z " fill="#31107C" transform="translate(648,160)"/>
</svg>
