<?xml version="1.0" encoding="UTF-8"?>
<svg version="1.1" xmlns="http://www.w3.org/2000/svg" width="366" height="366">
<path d="M0 0 C1.09390045 -0.00885223 2.1878009 -0.01770447 3.31484985 -0.02682495 C39.03405474 -0.22263374 73.16309522 7.95681292 104.75 24.5625 C105.76835937 25.0575 106.78671875 25.5525 107.8359375 26.0625 C115.70913466 30.1151913 122.90352408 35.51066977 129.8125 41.01953125 C131.17370819 42.10355793 132.57420938 43.13916038 134 44.13671875 C134.5775 44.60722656 135.155 45.07773438 135.75 45.5625 C135.75 46.2225 135.75 46.8825 135.75 47.5625 C136.60658203 47.93375 136.60658203 47.93375 137.48046875 48.3125 C145.45190913 52.7029663 150.87081798 61.1376578 155.75 68.5625 C156.51957031 69.65691406 156.51957031 69.65691406 157.3046875 70.7734375 C172.47008047 92.53931238 176.2630465 117.84135514 172.25195312 143.78369141 C171.00535526 149.61741098 169.12998644 155.09972962 166.75 160.5625 C166.45077637 161.25408203 166.15155273 161.94566406 165.84326172 162.65820312 C163.09579581 168.8344711 160.02496367 174.29905659 155.75 179.5625 C155.27304687 180.3771875 154.79609375 181.191875 154.3046875 182.03125 C152.45345883 185.04531074 150.27471569 187.46584716 147.875 190.0625 C147.03195312 190.9803125 146.18890625 191.898125 145.3203125 192.84375 C115.54764449 224.33581222 73.66033169 243.09287179 30.6015625 247.23828125 C27.80753241 247.3906894 27.80753241 247.3906894 25.75 248.5625 C24.17439634 248.66269677 22.59464026 248.70083366 21.01586914 248.70776367 C19.53776512 248.71733345 19.53776512 248.71733345 18.02980042 248.72709656 C16.95906784 248.72820938 15.88833527 248.7293222 14.78515625 248.73046875 C13.68207626 248.73379715 12.57899628 248.73712555 11.44248962 248.74055481 C9.09960345 248.74562785 6.75671002 248.74796302 4.41381836 248.74780273 C0.85843631 248.74997197 -2.69662674 248.76807578 -6.25195312 248.78710938 C-8.53124894 248.79004681 -10.81054623 248.79202926 -13.08984375 248.79296875 C-14.14235825 248.80015427 -15.19487274 248.80733978 -16.27928162 248.81474304 C-23.14926957 248.79389377 -29.53508255 247.9758639 -36.25 246.5625 C-37.81957111 246.27200686 -39.3897797 245.98491017 -40.9609375 245.703125 C-74.95859882 239.30127263 -114.01035066 226.76752631 -138.25 200.5625 C-139.5208106 199.33330983 -140.79164657 198.10414589 -142.0625 196.875 C-146.52855407 192.40894593 -150.41913968 187.5765418 -154.25 182.5625 C-154.71277344 181.96695313 -155.17554688 181.37140625 -155.65234375 180.7578125 C-171.21593999 159.97320154 -176.03384537 134.54917711 -172.75 109.08203125 C-170.86243046 97.09318253 -167.18697889 85.56517601 -160.25 75.5625 C-159.79625 74.79035156 -159.3425 74.01820313 -158.875 73.22265625 C-157.0296503 70.2017833 -154.99423446 67.39778979 -152.875 64.5625 C-152.12476563 63.551875 -151.37453125 62.54125 -150.6015625 61.5 C-148.30988714 58.63730919 -145.85264471 56.14035762 -143.25 53.5625 C-142.26193359 52.30373047 -142.26193359 52.30373047 -141.25390625 51.01953125 C-137.56650819 46.49833558 -132.82962193 43.13845151 -128.25 39.5625 C-127.39148438 38.88832031 -126.53296875 38.21414062 -125.6484375 37.51953125 C-104.5617423 21.56117129 -79.79209191 11.6563976 -54.25 5.5625 C-53.26080566 5.3056543 -52.27161133 5.04880859 -51.25244141 4.78417969 C-34.25604074 0.44952717 -17.45452562 0.06554454 0 0 Z M-127.25 60.5625 C-127.25 61.2225 -127.25 61.8825 -127.25 62.5625 C-128.09884766 62.90861328 -128.09884766 62.90861328 -128.96484375 63.26171875 C-131.83965842 64.89815171 -133.62101878 66.90170394 -135.8125 69.375 C-136.57691406 70.22707031 -137.34132813 71.07914063 -138.12890625 71.95703125 C-140.12051708 74.40344823 -141.7046899 76.81878615 -143.25 79.5625 C-143.86875 80.635 -144.4875 81.7075 -145.125 82.8125 C-145.46362061 83.41360596 -145.80224121 84.01471191 -146.15112305 84.6340332 C-146.89980057 85.94791984 -147.66781095 87.25093368 -148.45239258 88.54370117 C-151.72103583 94.07794226 -153.64466185 99.37099814 -155.0625 105.625 C-155.37658813 106.99918091 -155.37658813 106.99918091 -155.69702148 108.40112305 C-160.34871555 130.12985435 -154.8231086 150.8571268 -143.25 169.5625 C-121.76845344 200.33987276 -85.85756566 218.46580794 -50.125 226.875 C-49.10164551 227.11750488 -48.07829102 227.36000977 -47.02392578 227.60986328 C-32.32853764 230.89122263 -17.82456069 231.89781975 -2.81152344 231.82324219 C-0.25171239 231.81250718 2.30739725 231.82322169 4.8671875 231.8359375 C20.16705536 231.85099064 34.83480132 230.37611259 49.75 226.8125 C50.8630249 226.54937012 51.9760498 226.28624023 53.12280273 226.01513672 C65.64417467 222.97201832 77.30991571 218.83292352 89 213.4375 C89.70390869 213.11281738 90.40781738 212.78813477 91.13305664 212.45361328 C95.09704214 210.55525807 98.41070075 208.47467958 101.75 205.5625 C96.25069605 206.64272042 91.11364189 208.11435596 85.8125 209.9375 C45.0071763 223.11411691 -3.27615677 218.84610495 -41.47021484 199.43408203 C-50.39043396 194.71115331 -58.17042365 189.47857283 -65.69921875 182.734375 C-67.191981 181.36153668 -67.191981 181.36153668 -69.25 181.5625 C-69.4975 180.94375 -69.745 180.325 -70 179.6875 C-71.06460222 177.41958859 -71.06460222 177.41958859 -73.25 176.625 C-76.01477686 175.15621229 -76.1558798 173.43456552 -77.25 170.5625 C-77.86875 169.94375 -78.4875 169.325 -79.125 168.6875 C-81.83281427 165.97968573 -83.48581275 162.91791497 -85.25 159.5625 C-85.56839844 158.98886719 -85.88679688 158.41523438 -86.21484375 157.82421875 C-87.30985397 155.77052488 -88.27713633 153.67681022 -89.25 151.5625 C-89.69988281 150.70398438 -90.14976563 149.84546875 -90.61328125 148.9609375 C-96.8065562 135.17872001 -97.1424552 115.49459777 -92.29614258 101.23583984 C-91.09847952 98.24847666 -89.73245846 95.42100282 -88.25 92.5625 C-87.89421875 91.75425781 -87.5384375 90.94601563 -87.171875 90.11328125 C-84.54615579 84.2721686 -80.53699391 79.4278752 -76.56640625 74.453125 C-75.05952927 72.67290842 -75.05952927 72.67290842 -75.25 70.5625 C-74.63125 70.315 -74.0125 70.0675 -73.375 69.8125 C-71.11253506 68.74106271 -71.11253506 68.74106271 -70.25 66.5625 C-68.96668732 63.99587464 -67.79218623 63.82686776 -65.25 62.5625 C-63.74728797 61.38357675 -62.27026874 60.17156393 -60.8125 58.9375 C-29.09993063 33.33596589 14.89660276 25.94039454 54.60693359 29.95214844 C61.47925203 30.81327943 68.30515904 31.89766094 75.12451172 33.10498047 C78.32536656 33.6627638 81.53044926 34.12742558 84.75 34.5625 C66.48117582 16.29367582 20.90504972 16.26113501 -3.00268555 16.24780273 C-46.83392582 16.55880353 -94.7565419 29.61634943 -127.25 60.5625 Z M84.75 34.5625 C85.41 35.2225 86.07 35.8825 86.75 36.5625 C87.74 36.2325 88.73 35.9025 89.75 35.5625 C88.1 35.2325 86.45 34.9025 84.75 34.5625 Z M-58.8125 77.875 C-71.55269605 91.92188283 -80.39758389 106.71100681 -79.625 126.21875 C-77.51468556 145.03572045 -68.87610026 159.99639022 -54.16015625 172.09765625 C-50.28910284 175.06625549 -46.2931329 177.83483618 -42.25 180.5625 C-41.63769531 180.99433594 -41.02539062 181.42617187 -40.39453125 181.87109375 C-9.7440024 202.50776328 34.0616716 204.66387987 69.25292969 198.09375 C75.87916651 196.68402265 82.33226282 194.71593171 88.75 192.5625 C88.75 192.2325 88.75 191.9025 88.75 191.5625 C88.14341553 191.5531543 87.53683105 191.54380859 86.91186523 191.53417969 C61.90664992 191.0557905 33.9550789 189.31623095 13.625 172.91015625 C11.82122281 171.43053267 11.82122281 171.43053267 9.5625 171.05859375 C8.964375 170.89488281 8.36625 170.73117188 7.75 170.5625 C7.42 169.5725 7.09 168.5825 6.75 167.5625 C5.18207361 166.12807413 5.18207361 166.12807413 3.25 164.6875 C-8.08544268 154.93942631 -13.8768743 142.22006794 -15.7578125 127.62109375 C-16.31424426 115.44007675 -13.37164572 101.94715756 -5.25 92.5625 C-4.7653125 91.73492187 -4.280625 90.90734375 -3.78125 90.0546875 C1.52470056 81.41898225 10.06130282 75.42961253 18.75 70.5625 C19.65105469 70.05074219 20.55210937 69.53898437 21.48046875 69.01171875 C43.67818212 57.16273244 66.07910099 56.19350865 90.75 55.5625 C79.33562183 44.14812183 50.21305452 45.35114266 35.25 45.3125 C0.56330129 45.40207974 -32.57268649 54.19516829 -58.8125 77.875 Z M41.75 77.5625 C40.02136719 78.17351562 40.02136719 78.17351562 38.2578125 78.796875 C31.81767914 81.27014317 26.32658081 84.53916414 20.75 88.5625 C20.13511719 88.95050781 19.52023438 89.33851563 18.88671875 89.73828125 C13.6604985 93.11041006 10.19195001 97.42314998 6.75 102.5625 C6.16476563 103.42617187 5.57953125 104.28984375 4.9765625 105.1796875 C-0.1062507 113.79422067 -0.77567772 122.80476524 0.75 132.5625 C1.93360293 136.32217988 3.5257796 139.32609814 5.75 142.5625 C6.6471875 144.109375 6.6471875 144.109375 7.5625 145.6875 C20.1153321 162.18550791 39.78084605 171.36429159 60.0546875 174.1328125 C88.51729153 177.17660909 116.06618943 172.50179243 138.875 154.5 C146.97925234 146.97908716 149.42126393 137.25293171 149.87890625 126.546875 C150.09415083 114.43578009 149.00521903 103.72472715 140.6640625 94.41796875 C121.03192828 75.38681823 94.93956167 71.86567918 68.9140625 72.21484375 C59.30574822 72.42219151 50.72108719 74.2129209 41.75 77.5625 Z " fill="#31107C" transform="translate(182.25,57.4375)"/>
</svg>
